<svg width="64" height="64" viewBox="0 0 64 64" fill="none" xmlns="http://www.w3.org/2000/svg">
<rect width="64" height="64" rx="16" fill="white"/>
<path fill-rule="evenodd" clip-rule="evenodd" d="M38.0775 11.3437C30.8328 13.667 25.1611 10.7503 21.6949 8.5433C17.2542 5.71551 11.931 6.72972 10.4797 12.7668C7.54373 24.9811 18.8657 47.9442 23.2545 47.5501C29.0493 47.0293 25.1337 36.9138 33.3706 39.403C25.5764 34.3675 26.0762 44.1726 23.4206 43.9859C19.2113 43.6903 12.9848 26.6887 13.231 16.8415C13.3727 11.1881 17.0466 9.13005 21.9441 11.9482C25.3428 13.9033 31.237 15.5976 38.0775 11.3437Z" fill="#5E6D55"/>
<mask id="mask0_104_750" style="mask-type:luminance" maskUnits="userSpaceOnUse" x="15" y="6" width="42" height="31">
<path d="M15.834 6H56.4357V36.3449H15.834V6Z" fill="white"/>
</mask>
<g mask="url(#mask0_104_750)">
<path fill-rule="evenodd" clip-rule="evenodd" d="M27.9743 10.4614C31.0171 7.32096 40.3189 3.08557 45.8119 9.13232C46.3058 9.6761 46.7434 10.2614 47.1275 10.8829C52.7132 12.7521 56.393 15.9384 56.393 19.5552C56.393 22.9542 53.1426 25.9731 48.1138 27.8763C47.1372 31.062 45.6525 33.9979 43.8764 36.216C44.6995 33.7134 45.3714 31.1397 45.8446 28.6238C42.8159 29.4862 39.3118 29.9788 35.5794 29.9788C26.5512 29.9788 18.8653 27.0985 15.9819 23.0735C19.572 25.619 25.8081 27.3037 32.9007 27.3037C44.0239 27.3037 53.0447 23.1594 53.0447 18.0498C53.0447 15.6043 50.9786 13.381 47.6051 11.7267C49.0861 14.5871 49.5644 18.0728 49.3056 21.614C48.5299 22.24 47.6014 22.8201 46.5417 23.3439C46.9021 18.178 46.1575 13.7292 43.8222 11.3385C37.9414 5.31921 31.0022 9.17232 27.9743 10.4614Z" fill="#5E6D55"/>
</g>
<mask id="mask1_104_750" style="mask-type:luminance" maskUnits="userSpaceOnUse" x="20" y="46" width="24" height="15">
<path d="M43.9322 46.9655H20.0112V61H43.9322V46.9655Z" fill="white"/>
</mask>
<g mask="url(#mask1_104_750)">
<path d="M23.604 49.3336H24.6571V50.9368H26.2827V49.3336H27.3357V53.4823H26.2827V51.808H24.6571V53.4823H23.604V49.3336Z" fill="#5E6D55"/>
<path d="M27.9736 49.3336H30.9222V50.2167H29.0267V50.9961H30.409V51.8199H29.0267V52.5992H30.9222V53.4823H27.9736V49.3336Z" fill="#5E6D55"/>
<path d="M31.4448 49.3336H32.4979V53.4823H31.4448V49.3336Z" fill="#5E6D55"/>
<path d="M33.1377 49.3336H34.1908V50.9368H35.8163V49.3336H36.8694V53.4823H35.8163V51.808H34.1908V53.4823H33.1377V49.3336Z" fill="#5E6D55"/>
<path d="M37.5098 49.3336H40.4584V50.2167H38.5628V50.9961H39.9452V51.8199H38.5628V52.5992H40.4584V53.4823H37.5098V49.3336Z" fill="#5E6D55"/>
<path d="M20.4722 54.2437H21.9643C22.4189 54.2437 22.8164 54.3266 23.1567 54.4926C23.4986 54.6585 23.7619 54.8978 23.9458 55.2097C24.1297 55.5201 24.2217 55.8824 24.2217 56.2973C24.2217 56.9848 24.0185 57.5063 23.6136 57.8619C23.2101 58.216 22.6502 58.3924 21.9346 58.3924H20.4722V54.2437ZM22.0236 57.5093C22.3833 57.5093 22.6591 57.4011 22.8512 57.1833C23.0425 56.964 23.139 56.6692 23.139 56.2973C23.139 55.958 23.0425 55.6779 22.8512 55.4586C22.6591 55.2379 22.3951 55.1267 22.0592 55.1267H21.5252V57.5093H22.0236Z" fill="#5E6D55"/>
<path d="M24.7402 54.2437H27.6888V55.1267H25.7933V55.9061H27.1756V56.7299H25.7933V57.5093H27.6888V58.3924H24.7402V54.2437Z" fill="#5E6D55"/>
<path d="M28.2085 54.2437H29.2497L30.7744 56.7121V54.2437H31.8275V58.3924H30.7922L29.2616 55.918V58.3924H28.2085V54.2437Z" fill="#5E6D55"/>
<path d="M33.4354 55.1267H32.2637V54.2437H35.6632V55.1267H34.4855V58.3924H33.4354V55.1267Z" fill="#5E6D55"/>
<path d="M37.6383 54.2437H38.6706L40.3288 58.3924H39.2549L38.9227 57.5389H37.3891L37.0569 58.3924H35.9741L37.6383 54.2437ZM38.6587 56.7299L38.1544 55.3342L37.6442 56.7299H38.6587Z" fill="#5E6D55"/>
<path d="M40.8496 54.2437H41.9027V57.5093H43.7092V58.3924H40.8496V54.2437Z" fill="#5E6D55"/>
</g>
</svg>
