<svg width="86" height="86" viewBox="0 0 86 86" fill="none" xmlns="http://www.w3.org/2000/svg">
<path fill-rule="evenodd" clip-rule="evenodd" d="M51.1666 15.2431C41.4316 18.365 33.8102 14.4457 29.1525 11.4801C23.1853 7.68024 16.0323 9.04309 14.0821 17.1555C10.1369 33.5684 25.3508 64.425 31.2482 63.8954C39.035 63.1956 33.7734 49.603 44.8417 52.9479C34.3683 46.1814 35.0399 59.3569 31.4714 59.106C25.8152 58.7088 17.4484 35.863 17.7792 22.6307C17.9695 15.034 22.9063 12.2685 29.4873 16.0554C34.0544 18.6826 41.9747 20.9593 51.1666 15.2431Z" fill="#5E6D55"/>
<mask id="mask0_107_925" style="mask-type:luminance" maskUnits="userSpaceOnUse" x="21" y="8" width="55" height="41">
<path d="M21.2773 8.0625H75.8359V48.8384H21.2773V8.0625Z" fill="white"/>
</mask>
<g mask="url(#mask0_107_925)">
<path fill-rule="evenodd" clip-rule="evenodd" d="M37.5913 14.0575C41.68 9.83752 54.1794 4.14621 61.5606 12.2715C62.2243 13.0022 62.8123 13.7887 63.3284 14.6239C70.8342 17.1356 75.779 21.4172 75.779 26.2773C75.779 30.8447 71.4112 34.9014 64.6538 37.4588C63.3414 41.7395 61.3464 45.6847 58.9597 48.6652C60.0658 45.3024 60.9687 41.844 61.6045 38.4633C57.5347 39.622 52.8261 40.284 47.8106 40.284C35.679 40.284 25.351 36.4135 21.4766 31.0049C26.3007 34.4255 34.6805 36.6893 44.2112 36.6893C59.158 36.6893 71.2797 31.1204 71.2797 24.2544C71.2797 20.9683 68.5034 17.9807 63.9702 15.7578C65.9603 19.6014 66.603 24.2853 66.2552 29.0438C65.2129 29.885 63.9652 30.6645 62.5412 31.3683C63.0255 24.4266 62.025 18.4486 58.887 15.2361C50.9845 7.14766 41.6601 12.3253 37.5913 14.0575Z" fill="#5E6D55"/>
</g>
<mask id="mask1_107_925" style="mask-type:luminance" maskUnits="userSpaceOnUse" x="26" y="63" width="34" height="19">
<path d="M59.0334 63.1099H26.8896V81.9688H59.0334V63.1099Z" fill="white"/>
</mask>
<g mask="url(#mask1_107_925)">
<path d="M31.7168 66.2921H33.1319V68.4463H35.3162V66.2921H36.7313V71.8669H35.3162V69.617H33.1319V71.8669H31.7168V66.2921Z" fill="#5E6D55"/>
<path d="M37.5889 66.2921H41.551V67.4787H39.0039V68.526H40.8614V69.633H39.0039V70.6802H41.551V71.8669H37.5889V66.2921Z" fill="#5E6D55"/>
<path d="M42.2529 66.2921H43.668V71.8669H42.2529V66.2921Z" fill="#5E6D55"/>
<path d="M44.5283 66.2921H45.9434V68.4463H48.1278V66.2921H49.5428V71.8669H48.1278V69.617H45.9434V71.8669H44.5283V66.2921Z" fill="#5E6D55"/>
<path d="M50.4023 66.2921H54.3645V67.4787H51.8174V68.526H53.6749V69.633H51.8174V70.6802H54.3645V71.8669H50.4023V66.2921Z" fill="#5E6D55"/>
<path d="M27.5088 72.8899H29.5138C30.1247 72.8899 30.6588 73.0014 31.1162 73.2244C31.5756 73.4474 31.9294 73.7689 32.1765 74.188C32.4236 74.6051 32.5472 75.092 32.5472 75.6494C32.5472 76.5733 32.2742 77.2741 31.7301 77.7519C31.1879 78.2278 30.4356 78.4647 29.4739 78.4647H27.5088V72.8899ZM29.5935 77.2781C30.0768 77.2781 30.4475 77.1327 30.7056 76.8401C30.9627 76.5454 31.0923 76.1492 31.0923 75.6494C31.0923 75.1935 30.9627 74.8172 30.7056 74.5225C30.4475 74.2259 30.0928 74.0765 29.6413 74.0765H28.9238V77.2781H29.5935Z" fill="#5E6D55"/>
<path d="M33.2441 72.8899H37.2063V74.0765H34.6592V75.1238H36.5167V76.2308H34.6592V77.2781H37.2063V78.4647H33.2441V72.8899Z" fill="#5E6D55"/>
<path d="M37.9043 72.8899H39.3034L41.3523 76.2069V72.8899H42.7673V78.4647H41.3762L39.3194 75.1397V78.4647H37.9043V72.8899Z" fill="#5E6D55"/>
<path d="M44.928 74.0765H43.3535V72.8899H47.9216V74.0765H46.3391V78.4647H44.928V74.0765Z" fill="#5E6D55"/>
<path d="M50.576 72.8899H51.9632L54.1914 78.4647H52.7485L52.302 77.3179H50.2412L49.7948 78.4647H48.3398L50.576 72.8899ZM51.9473 76.2308L51.2696 74.3553L50.584 76.2308H51.9473Z" fill="#5E6D55"/>
<path d="M54.8916 72.8899H56.3067V77.2781H58.7342V78.4647H54.8916V72.8899Z" fill="#5E6D55"/>
</g>
</svg>
